<!-- Generator: Adobe Illustrator 22.1.0, SVG Export Plug-In  -->
<svg version="1.1"
	 xmlns="http://www.w3.org/2000/svg" xmlns:xlink="http://www.w3.org/1999/xlink" xmlns:a="http://ns.adobe.com/AdobeSVGViewerExtensions/3.0/"
	 x="0px" y="0px" width="152.495px" height="150px" viewBox="0 0 152.495 150" style="enable-background:new 0 0 152.495 150;"
	 xml:space="preserve">
<defs>
</defs>
<g id="XMLID_1_">
	<g id="XMLID_10_">
		<g id="XMLID_11_">
			<g id="XMLID_18_">
				<path id="XMLID_19_" d="M135.975,77.979c-0.005,1.778-0.069,3.554-0.209,5.326c-0.066,0.843-0.148,1.685-0.246,2.525
					c-0.041,0.349-0.152,1.154-0.035,0.34c-0.073,0.51-0.149,1.02-0.232,1.529c-0.544,3.328-1.341,6.614-2.381,9.823
					c-0.524,1.615-1.125,3.197-1.752,4.775c-0.07,0.176-0.344,0.796,0.021-0.041c-0.075,0.172-0.148,0.344-0.225,0.515
					c-0.153,0.342-0.305,0.684-0.462,1.024c-0.365,0.792-0.745,1.577-1.141,2.355c-1.518,2.982-3.259,5.852-5.205,8.579
					c-0.467,0.654-0.949,1.296-1.434,1.937c0.473-0.626,0.005-0.011-0.206,0.252c-0.309,0.385-0.623,0.767-0.941,1.145
					c-1.032,1.228-2.108,2.42-3.225,3.573c-1.16,1.197-2.364,2.351-3.608,3.461c-0.6,0.534-1.208,1.058-1.827,1.571
					c-0.333,0.276-0.669,0.549-1.007,0.819c-0.242,0.193-1.1,0.844-0.398,0.32c-2.688,2.007-5.483,3.851-8.428,5.466
					c-1.479,0.811-2.988,1.566-4.523,2.265c-0.342,0.156-0.687,0.307-1.031,0.459c-0.172,0.076-0.345,0.149-0.519,0.223
					c0.153-0.065,0.839-0.339,0.041-0.021c-0.819,0.326-1.64,0.647-2.47,0.946c-3.174,1.145-6.434,2.053-9.744,2.714
					c-0.822,0.164-1.648,0.313-2.476,0.447c-0.448,0.072-0.897,0.135-1.346,0.203c-0.533,0.081,0.185-0.025,0.241-0.032
					c-0.259,0.03-0.517,0.064-0.776,0.094c-1.763,0.203-3.534,0.337-5.307,0.403c-3.567,0.133-7.144-0.008-10.689-0.426
					c-0.194-0.023-0.388-0.049-0.582-0.071c0.056,0.007,0.774,0.113,0.241,0.032c-0.449-0.068-0.898-0.131-1.346-0.203
					c-0.828-0.134-1.653-0.283-2.476-0.447c-1.694-0.338-3.375-0.741-5.038-1.207c-1.647-0.462-3.277-0.987-4.884-1.572
					c-0.77-0.28-1.531-0.579-2.292-0.882c-0.82-0.326,0.502,0.227-0.305-0.127c-0.459-0.202-0.919-0.403-1.374-0.612
					c-3.06-1.402-6.014-3.033-8.831-4.871c-1.35-0.881-2.659-1.819-3.95-2.783c0.794,0.593-0.216-0.174-0.398-0.32
					c-0.29-0.231-0.578-0.465-0.864-0.701c-0.667-0.551-1.324-1.114-1.97-1.689c-2.49-2.219-4.815-4.619-6.952-7.176
					c-0.277-0.332-0.551-0.666-0.822-1.003c-0.211-0.262-0.679-0.878-0.206-0.252c-0.522-0.69-1.041-1.382-1.542-2.088
					c-0.967-1.364-1.884-2.763-2.747-4.194c-0.866-1.436-1.679-2.904-2.435-4.4c-0.337-0.667-0.663-1.34-0.978-2.018
					c-0.184-0.396-0.362-0.795-0.54-1.194c-0.076-0.171-0.15-0.344-0.225-0.515c0.161,0.368,0.197,0.476,0.021,0.041
					c-1.273-3.164-2.345-6.394-3.145-9.709c-0.405-1.679-0.745-3.374-1.019-5.079c-0.061-0.382-0.115-0.765-0.174-1.147
					c-0.107-0.692,0.083,0.745,0.008,0.047c-0.021-0.193-0.048-0.386-0.07-0.579c-0.105-0.905-0.192-1.812-0.261-2.72
					c-0.263-3.479-0.258-6.979,0.015-10.457c0.066-0.843,0.148-1.685,0.246-2.525c0.03-0.257,0.064-0.514,0.094-0.771
					c-0.007,0.056-0.114,0.769-0.032,0.24c0.069-0.446,0.132-0.892,0.205-1.337c0.278-1.704,0.624-3.397,1.033-5.074
					c0.813-3.328,1.969-6.496,3.172-9.697c0.182-0.484-0.071,0.162-0.093,0.214c0.075-0.172,0.148-0.344,0.225-0.515
					c0.178-0.399,0.356-0.798,0.54-1.194c0.367-0.791,0.75-1.575,1.147-2.351c0.736-1.436,1.524-2.847,2.362-4.227
					c0.867-1.428,1.787-2.825,2.758-4.185c0.467-0.654,0.949-1.296,1.434-1.937c-0.525,0.694,0.123-0.15,0.322-0.396
					c0.272-0.336,0.546-0.67,0.824-1.001c2.144-2.551,4.476-4.945,6.972-7.157c0.601-0.533,1.212-1.055,1.831-1.566
					c0.286-0.236,0.574-0.47,0.864-0.701c0.145-0.116,0.291-0.23,0.436-0.346c0.935-0.742-0.452,0.318,0.11-0.086
					c1.36-0.978,2.705-1.965,4.114-2.874c2.775-1.79,5.682-3.377,8.689-4.746c0.399-0.182,0.802-0.357,1.203-0.534
					c0.807-0.354-0.515,0.199,0.305-0.127c0.82-0.326,1.64-0.647,2.47-0.946c1.609-0.581,3.241-1.1,4.89-1.558
					c1.665-0.462,3.347-0.86,5.043-1.194c0.823-0.162,1.65-0.308,2.478-0.44c0.384-0.061,0.77-0.114,1.154-0.173
					c0.533-0.081-0.185,0.025-0.241,0.032c0.324-0.037,0.647-0.079,0.971-0.116c3.483-0.39,6.996-0.513,10.499-0.373
					c1.772,0.071,3.542,0.211,5.303,0.418c0.194,0.023,0.388,0.047,0.582,0.071c-0.17-0.021-0.927-0.135-0.048-0.004
					c0.385,0.057,0.769,0.114,1.153,0.176c0.891,0.144,1.78,0.306,2.665,0.485c3.369,0.683,6.685,1.621,9.91,2.805
					c0.769,0.282,1.523,0.599,2.289,0.888c0.487,0.184-0.164-0.07-0.215-0.093c0.173,0.075,0.346,0.148,0.519,0.223
					c0.402,0.177,0.803,0.354,1.202,0.537c1.533,0.703,3.04,1.463,4.516,2.278c1.47,0.811,2.91,1.676,4.315,2.594
					c0.675,0.441,1.342,0.893,2.001,1.357c0.354,0.25,0.707,0.503,1.056,0.759c0.175,0.128,1.091,0.818,0.728,0.539
					c-0.4-0.306,0.592,0.47,0.709,0.563c0.289,0.232,0.577,0.467,0.862,0.704c0.666,0.552,1.321,1.117,1.965,1.695
					c1.242,1.113,2.442,2.271,3.598,3.471c1.156,1.201,2.269,2.443,3.334,3.724c0.237,0.285,0.471,0.572,0.703,0.86
					c0.211,0.262,0.679,0.877,0.206,0.252c0.522,0.69,1.041,1.382,1.542,2.088c1.938,2.732,3.672,5.607,5.182,8.594
					c0.365,0.723,0.718,1.453,1.057,2.188c0.157,0.34,0.309,0.682,0.462,1.024c0.056,0.126,0.369,0.859,0.142,0.322
					c-0.215-0.51,0.096,0.238,0.132,0.327c0.633,1.575,1.22,3.165,1.739,4.78c1.032,3.213,1.819,6.503,2.354,9.834
					c0.071,0.445,0.137,0.892,0.201,1.338c-0.117-0.814-0.006-0.009,0.035,0.34c0.098,0.84,0.18,1.682,0.246,2.525
					C135.906,74.425,135.97,76.201,135.975,77.979c0.007,2.361,2.085,4.624,4.543,4.514c2.455-0.109,4.55-1.984,4.543-4.514
					c-0.043-14.737-4.586-29.435-13.214-41.458c-8.624-12.018-20.602-21.169-34.543-26.285C83.186,5.055,67.292,4.541,52.821,8.599
					c-13.938,3.909-26.719,12.091-35.948,23.196C7.208,43.425,1.392,57.605,0.211,72.653c-1.161,14.787,2.494,29.93,10.236,42.606
					c7.478,12.244,18.703,22.333,31.861,28.23c14.082,6.311,29.737,8.103,44.896,5.076c14.261-2.847,27.599-10.249,37.652-20.679
					c10.089-10.467,17.029-24.009,19.249-38.359c0.592-3.828,0.944-7.674,0.955-11.548c0.007-2.361-2.094-4.623-4.543-4.514
					C138.051,73.574,135.983,75.448,135.975,77.979z"/>
			</g>
			<g id="XMLID_16_">
				<path id="XMLID_17_" d="M135.975,77.979c-0.005,1.778-0.069,3.554-0.209,5.326c-0.066,0.843-0.148,1.685-0.246,2.525
					c-0.041,0.349-0.152,1.154-0.035,0.34c-0.073,0.51-0.149,1.02-0.232,1.529c-0.544,3.328-1.341,6.614-2.381,9.823
					c-0.524,1.615-1.125,3.197-1.752,4.775c-0.07,0.176-0.344,0.796,0.021-0.041c-0.075,0.172-0.148,0.344-0.225,0.515
					c-0.153,0.342-0.305,0.684-0.462,1.024c-0.365,0.792-0.745,1.577-1.141,2.355c-1.518,2.982-3.259,5.852-5.205,8.579
					c-0.467,0.654-0.949,1.296-1.434,1.937c0.473-0.626,0.005-0.011-0.206,0.252c-0.309,0.385-0.623,0.767-0.941,1.145
					c-1.032,1.228-2.108,2.42-3.225,3.573c-1.16,1.197-2.364,2.351-3.608,3.461c-0.6,0.534-1.208,1.058-1.827,1.571
					c-0.333,0.276-0.669,0.549-1.007,0.819c-0.242,0.193-1.1,0.844-0.398,0.32c-2.688,2.007-5.483,3.851-8.428,5.466
					c-1.479,0.811-2.988,1.566-4.523,2.265c-0.342,0.156-0.687,0.307-1.031,0.459c-0.172,0.076-0.345,0.149-0.519,0.223
					c0.153-0.065,0.839-0.339,0.041-0.021c-0.819,0.326-1.64,0.647-2.47,0.946c-3.174,1.145-6.434,2.053-9.744,2.714
					c-0.822,0.164-1.648,0.313-2.476,0.447c-0.448,0.072-0.897,0.135-1.346,0.203c-0.533,0.081,0.185-0.025,0.241-0.032
					c-0.259,0.03-0.517,0.064-0.776,0.094c-1.763,0.203-3.534,0.337-5.307,0.403c-3.567,0.133-7.144-0.008-10.689-0.426
					c-0.194-0.023-0.388-0.049-0.582-0.071c0.056,0.007,0.774,0.113,0.241,0.032c-0.449-0.068-0.898-0.131-1.346-0.203
					c-0.828-0.134-1.653-0.283-2.476-0.447c-1.694-0.338-3.375-0.741-5.038-1.207c-1.647-0.462-3.277-0.987-4.884-1.572
					c-0.77-0.28-1.531-0.579-2.292-0.882c-0.82-0.326,0.502,0.227-0.305-0.127c-0.459-0.202-0.919-0.403-1.374-0.612
					c-3.06-1.402-6.014-3.033-8.831-4.871c-1.35-0.881-2.659-1.819-3.95-2.783c0.794,0.593-0.216-0.174-0.398-0.32
					c-0.29-0.231-0.578-0.465-0.864-0.701c-0.667-0.551-1.324-1.114-1.97-1.689c-2.49-2.219-4.815-4.619-6.952-7.176
					c-0.277-0.332-0.551-0.666-0.822-1.003c-0.211-0.262-0.679-0.878-0.206-0.252c-0.522-0.69-1.041-1.382-1.542-2.088
					c-0.967-1.364-1.884-2.763-2.747-4.194c-0.866-1.436-1.679-2.904-2.435-4.4c-0.337-0.667-0.663-1.34-0.978-2.018
					c-0.184-0.396-0.362-0.795-0.54-1.194c-0.076-0.171-0.15-0.344-0.225-0.515c0.161,0.368,0.197,0.476,0.021,0.041
					c-1.273-3.164-2.345-6.394-3.145-9.709c-0.405-1.679-0.745-3.374-1.019-5.079c-0.061-0.382-0.115-0.765-0.174-1.147
					c-0.107-0.692,0.083,0.745,0.008,0.047c-0.021-0.193-0.048-0.386-0.07-0.579c-0.105-0.905-0.192-1.812-0.261-2.72
					c-0.263-3.479-0.258-6.979,0.015-10.457c0.066-0.843,0.148-1.685,0.246-2.525c0.03-0.257,0.064-0.514,0.094-0.771
					c-0.007,0.056-0.114,0.769-0.032,0.24c0.069-0.446,0.132-0.892,0.205-1.337c0.278-1.704,0.624-3.397,1.033-5.074
					c0.813-3.328,1.969-6.496,3.172-9.697c0.182-0.484-0.071,0.162-0.093,0.214c0.075-0.172,0.148-0.344,0.225-0.515
					c0.178-0.399,0.356-0.798,0.54-1.194c0.367-0.791,0.75-1.575,1.147-2.351c0.736-1.436,1.524-2.847,2.362-4.227
					c0.867-1.428,1.787-2.825,2.758-4.185c0.467-0.654,0.949-1.296,1.434-1.937c-0.525,0.694,0.123-0.15,0.322-0.396
					c0.272-0.336,0.546-0.67,0.824-1.001c2.144-2.551,4.476-4.945,6.972-7.157c0.601-0.533,1.212-1.055,1.831-1.566
					c0.286-0.236,0.574-0.47,0.864-0.701c0.145-0.116,0.291-0.23,0.436-0.346c0.935-0.742-0.452,0.318,0.11-0.086
					c1.36-0.978,2.705-1.965,4.114-2.874c2.775-1.79,5.682-3.377,8.689-4.746c0.399-0.182,0.802-0.357,1.203-0.534
					c0.807-0.354-0.515,0.199,0.305-0.127c0.82-0.326,1.64-0.647,2.47-0.946c1.609-0.581,3.241-1.1,4.89-1.558
					c1.665-0.462,3.347-0.86,5.043-1.194c0.823-0.162,1.65-0.308,2.478-0.44c0.384-0.061,0.77-0.114,1.154-0.173
					c0.533-0.081-0.185,0.025-0.241,0.032c0.324-0.037,0.647-0.079,0.971-0.116c3.483-0.39,6.996-0.513,10.499-0.373
					c1.772,0.071,3.542,0.211,5.303,0.418c0.194,0.023,0.388,0.047,0.582,0.071c-0.17-0.021-0.927-0.135-0.048-0.004
					c0.385,0.057,0.769,0.114,1.153,0.176c0.891,0.144,1.78,0.306,2.665,0.485c3.369,0.683,6.685,1.621,9.91,2.805
					c0.769,0.282,1.523,0.599,2.289,0.888c0.487,0.184-0.164-0.07-0.215-0.093c0.173,0.075,0.346,0.148,0.519,0.223
					c0.402,0.177,0.803,0.354,1.202,0.537c1.533,0.703,3.04,1.463,4.516,2.278c1.47,0.811,2.91,1.676,4.315,2.594
					c0.675,0.441,1.342,0.893,2.001,1.357c0.354,0.25,0.707,0.503,1.056,0.759c0.175,0.128,1.091,0.818,0.728,0.539
					c-0.4-0.306,0.592,0.47,0.709,0.563c0.289,0.232,0.577,0.467,0.862,0.704c0.666,0.552,1.321,1.117,1.965,1.695
					c1.242,1.113,2.442,2.271,3.598,3.471c1.156,1.201,2.269,2.443,3.334,3.724c0.237,0.285,0.471,0.572,0.703,0.86
					c0.211,0.262,0.679,0.877,0.206,0.252c0.522,0.69,1.041,1.382,1.542,2.088c1.938,2.732,3.672,5.607,5.182,8.594
					c0.365,0.723,0.718,1.453,1.057,2.188c0.157,0.34,0.309,0.682,0.462,1.024c0.056,0.126,0.369,0.859,0.142,0.322
					c-0.215-0.51,0.096,0.238,0.132,0.327c0.633,1.575,1.22,3.165,1.739,4.78c1.032,3.213,1.819,6.503,2.354,9.834
					c0.071,0.445,0.137,0.892,0.201,1.338c-0.117-0.814-0.006-0.009,0.035,0.34c0.098,0.84,0.18,1.682,0.246,2.525
					C135.906,74.425,135.97,76.201,135.975,77.979c0.007,2.361,2.085,4.624,4.543,4.514c2.455-0.109,4.55-1.984,4.543-4.514
					c-0.043-14.737-4.586-29.435-13.214-41.458c-8.624-12.018-20.602-21.169-34.543-26.285C83.186,5.055,67.292,4.541,52.821,8.599
					c-13.938,3.909-26.719,12.091-35.948,23.196C7.208,43.425,1.392,57.605,0.211,72.653c-1.161,14.787,2.494,29.93,10.236,42.606
					c7.478,12.244,18.703,22.333,31.861,28.23c14.082,6.311,29.737,8.103,44.896,5.076c14.261-2.847,27.599-10.249,37.652-20.679
					c10.089-10.467,17.029-24.009,19.249-38.359c0.592-3.828,0.944-7.674,0.955-11.548c0.007-2.361-2.094-4.623-4.543-4.514
					C138.051,73.574,135.983,75.448,135.975,77.979z"/>
			</g>
			<g id="XMLID_14_">
				<path id="XMLID_15_" d="M114.91,77.979c-0.005,1.185-0.044,2.369-0.134,3.551c-0.044,0.584-0.1,1.167-0.166,1.749
					c-0.028,0.247-0.155,1.125-0.011,0.147c-0.047,0.319-0.095,0.637-0.148,0.954c-0.383,2.321-0.943,4.613-1.676,6.85
					c-0.352,1.074-0.752,2.13-1.173,3.179c0.353-0.88-0.152,0.34-0.29,0.64c-0.26,0.566-0.532,1.126-0.814,1.681
					c-1.041,2.043-2.234,4.008-3.564,5.877c-0.323,0.453-0.655,0.898-0.991,1.341c0.613-0.806-0.397,0.475-0.565,0.675
					c-0.754,0.898-1.54,1.768-2.359,2.608c-0.775,0.795-1.579,1.563-2.409,2.302c-0.369,0.328-0.743,0.651-1.123,0.968
					c-0.19,0.158-0.381,0.315-0.573,0.471c-0.276,0.224-0.875,0.682-0.249,0.209c-1.831,1.384-3.76,2.637-5.774,3.743
					c-0.985,0.541-1.989,1.046-3.011,1.515c-0.193,0.088-1.816,0.763-0.814,0.366c-0.586,0.232-1.171,0.462-1.764,0.675
					c-2.156,0.776-4.369,1.393-6.616,1.845c-0.632,0.127-1.267,0.241-1.904,0.342c-0.256,0.041-0.513,0.076-0.769,0.116
					c0.937-0.143,0.244-0.032,0.047-0.011c-1.308,0.14-2.616,0.25-3.931,0.294c-2.382,0.079-4.756-0.036-7.124-0.294
					c-0.884-0.096-0.124-0.014,0.047,0.011c-0.321-0.047-0.641-0.095-0.96-0.147c-0.573-0.093-1.144-0.197-1.713-0.311
					c-1.129-0.227-2.249-0.496-3.357-0.805c-1.098-0.307-2.186-0.653-3.258-1.04c-0.531-0.191-1.053-0.43-1.589-0.605
					c-0.706-0.23,0.969,0.439-0.132-0.053c-0.343-0.153-0.688-0.304-1.029-0.462c-2.035-0.943-4.001-2.033-5.879-3.256
					c-0.934-0.609-1.846-1.251-2.735-1.924c0.749,0.566-0.285-0.236-0.536-0.443c-0.477-0.392-0.947-0.794-1.408-1.204
					c-1.753-1.56-3.388-3.249-4.887-5.051c-0.179-0.216-1.039-1.314-0.446-0.533c-0.337-0.443-0.669-0.888-0.991-1.341
					c-0.682-0.958-1.328-1.941-1.936-2.947c-0.578-0.957-1.121-1.934-1.628-2.929c-0.226-0.444-0.445-0.891-0.657-1.342
					c-0.132-0.282-0.259-0.567-0.389-0.851c-0.077-0.171-0.152-0.342-0.226-0.515c0.189,0.445,0.221,0.517,0.096,0.213
					c-0.775-2.214-1.589-4.371-2.135-6.659c-0.252-1.057-0.467-2.124-0.644-3.196c-0.052-0.318-0.101-0.636-0.148-0.954
					c0.025,0.17,0.108,0.925,0.011,0.046c-0.071-0.647-0.139-1.293-0.188-1.942c-0.184-2.428-0.179-4.87,0.016-7.297
					c0.047-0.584,0.113-1.164,0.173-1.747c0.02-0.196,0.133-0.884-0.011,0.046c0.039-0.255,0.075-0.51,0.116-0.764
					c0.203-1.262,0.458-2.516,0.765-3.757c0.547-2.211,1.296-4.339,2.116-6.462c-0.367,0.952,0.255-0.566,0.369-0.809
					c0.236-0.508,0.481-1.012,0.735-1.512c0.535-1.051,1.111-2.081,1.725-3.088c0.548-0.898,1.125-1.778,1.732-2.638
					c0.356-0.505,0.723-1.002,1.099-1.492c-0.1,0.13-0.559,0.691-0.023,0.04c0.235-0.286,0.468-0.574,0.707-0.857
					c1.434-1.696,2.989-3.29,4.649-4.767c0.415-0.37,0.837-0.731,1.265-1.086c0.201-0.167,1.49-1.17,0.679-0.561
					c0.942-0.707,1.902-1.386,2.892-2.025c1.936-1.25,3.964-2.358,6.064-3.311c0.302-0.137,1.529-0.638,0.644-0.288
					c0.527-0.209,1.054-0.416,1.586-0.61c1.13-0.412,2.277-0.781,3.436-1.104c1.109-0.309,2.229-0.578,3.357-0.805
					c0.505-0.102,1.013-0.195,1.521-0.28c0.319-0.053,0.64-0.097,0.959-0.15c0.337-0.049,0.257-0.039-0.242,0.03
					c0.194-0.025,0.388-0.048,0.583-0.069c2.431-0.273,4.883-0.358,7.326-0.257c1.116,0.046,2.23,0.132,3.339,0.257
					c0.249,0.028,1.132,0.154,0.148,0.011c0.257,0.037,0.513,0.075,0.769,0.116c0.637,0.101,1.272,0.215,1.904,0.343
					c2.309,0.465,4.582,1.103,6.793,1.909c0.533,0.194,1.057,0.409,1.586,0.61c-0.929-0.354,0.381,0.169,0.644,0.288
					c1.137,0.516,2.254,1.078,3.346,1.683c1.955,1.083,3.829,2.307,5.61,3.654c-0.849-0.642,0.52,0.43,0.679,0.561
					c0.428,0.355,0.85,0.717,1.265,1.086c0.876,0.78,1.723,1.592,2.538,2.435c0.73,0.754,1.434,1.532,2.111,2.333
					c0.199,0.236,0.392,0.476,0.59,0.713c0.152,0.182,0.667,0.853,0.093,0.104c0.376,0.491,0.743,0.988,1.099,1.492
					c1.288,1.823,2.444,3.738,3.457,5.726c0.254,0.5,0.499,1.004,0.735,1.512c0.113,0.244,0.736,1.761,0.369,0.809
					c0.43,1.115,0.864,2.222,1.231,3.359c0.724,2.241,1.275,4.536,1.649,6.86c0.041,0.254,0.077,0.51,0.116,0.764
					c-0.144-0.931-0.031-0.243-0.011-0.046c0.066,0.647,0.139,1.293,0.188,1.942C114.865,75.61,114.905,76.794,114.91,77.979
					c0.01,2.361,2.082,4.624,4.543,4.514c2.453-0.109,4.553-1.984,4.543-4.514c-0.044-10.411-3.221-20.838-9.324-29.335
					c-6.167-8.586-14.644-15.067-24.599-18.741c-19.951-7.362-43.557-1.01-57.047,15.333c-6.85,8.298-10.95,18.288-11.807,28.997
					c-0.835,10.442,1.77,21.187,7.227,30.142c5.304,8.704,13.299,15.93,22.666,20.09c10.073,4.474,21.16,5.743,31.99,3.564
					c20.422-4.109,37.082-21.313,40.202-41.821c0.416-2.732,0.68-5.465,0.692-8.229c0.01-2.362-2.096-4.623-4.543-4.514
					C116.983,73.574,114.92,75.448,114.91,77.979z"/>
			</g>
			<g id="XMLID_12_">
				<path id="XMLID_13_" d="M96.234,77.979c-0.005,0.723-0.028,1.444-0.083,2.165c-0.025,0.324-0.061,0.647-0.091,0.97
					c-0.119,1.279,0.186-0.925-0.052,0.331c-0.26,1.375-0.566,2.73-1.004,4.062c-0.196,0.596-0.418,1.181-0.647,1.764
					c0.396-1.004-0.072,0.145-0.142,0.292c-0.106,0.225-0.215,0.449-0.326,0.671c-0.667,1.326-1.44,2.599-2.309,3.803
					c-0.144,0.2-0.291,0.398-0.441,0.594c0.649-0.852-0.115,0.119-0.217,0.238c-0.398,0.47-0.812,0.926-1.241,1.369
					c-0.428,0.443-0.871,0.871-1.327,1.285c-0.274,0.248-0.553,0.492-0.836,0.729c-0.103,0.087-1.083,0.844-0.24,0.215
					c-1.093,0.815-2.235,1.559-3.432,2.215c-0.546,0.299-1.103,0.58-1.668,0.843c-0.003,0.002-1.131,0.484-0.489,0.224
					c0.543-0.22-0.742,0.274-0.863,0.317c-1.197,0.425-2.423,0.768-3.667,1.028c-0.378,0.079-0.759,0.138-1.138,0.213
					c-1.218,0.242,0.624-0.044-0.139,0.029c-0.785,0.075-1.565,0.151-2.353,0.178c-1.391,0.048-2.767-0.029-4.151-0.155
					c-1.244-0.114,0.606,0.134-0.142-0.021c-0.315-0.065-0.636-0.106-0.952-0.168c-0.752-0.146-1.498-0.324-2.236-0.53
					c-0.609-0.171-1.212-0.362-1.808-0.574c-0.356-0.126-0.707-0.263-1.059-0.4c1.011,0.393-0.146-0.072-0.294-0.141
					c-1.241-0.576-2.439-1.242-3.583-1.991c-0.517-0.339-1.023-0.695-1.517-1.066c0.857,0.644-0.119-0.114-0.24-0.215
					c-0.189-0.158-0.376-0.319-0.561-0.482c-1.068-0.943-2.023-1.975-2.962-3.042c-0.158-0.179-0.671-0.849-0.098-0.097
					c-0.224-0.294-0.443-0.593-0.655-0.896c-0.355-0.506-0.693-1.023-1.014-1.551c-0.322-0.529-0.626-1.07-0.911-1.619
					c-0.172-0.331-0.337-0.665-0.496-1.002c-0.098-0.209-0.518-1.248-0.142-0.292c-0.485-1.232-0.905-2.481-1.223-3.767
					c-0.169-0.683-0.29-1.371-0.428-2.06c-0.039-0.193-0.123-0.885-0.006,0.054c-0.064-0.515-0.116-1.032-0.152-1.55
					c-0.091-1.312-0.091-2.629,0-3.941c0.027-0.389,0.067-0.777,0.106-1.165c0.088-0.879,0.019-0.12-0.009,0.049
					c0.128-0.756,0.265-1.509,0.444-2.255c0.325-1.355,0.78-2.649,1.269-3.951c-0.316,0.843-0.101,0.227-0.015,0.047
					c0.161-0.337,0.315-0.676,0.483-1.01c0.334-0.664,0.695-1.315,1.081-1.951c0.321-0.528,0.659-1.045,1.014-1.551
					c0.213-0.303,0.432-0.6,0.655-0.896c-0.544,0.72-0.145,0.187-0.021,0.045c0.979-1.117,1.965-2.198,3.081-3.184
					c0.185-0.163,0.372-0.324,0.561-0.483c0.121-0.101,1.097-0.86,0.24-0.215c0.494-0.371,1-0.727,1.517-1.066
					c1.144-0.749,2.342-1.415,3.583-1.991c0.148-0.069,1.305-0.534,0.294-0.141c0.293-0.114,0.586-0.228,0.881-0.335
					c0.654-0.237,1.316-0.45,1.986-0.638c0.614-0.172,1.234-0.324,1.859-0.454c0.315-0.066,0.63-0.125,0.947-0.18
					c1.192-0.207-0.409,0.001,0.524-0.085c1.317-0.121,2.629-0.199,3.953-0.162c0.723,0.02,1.444,0.068,2.163,0.142
					c0.254,0.026,1.125,0.174,0.145,0.011c0.445,0.074,0.889,0.147,1.332,0.236c1.568,0.316,3.06,0.797,4.563,1.328
					c0.182,0.064,0.797,0.342-0.04-0.028c0.457,0.202,0.912,0.409,1.36,0.631c0.668,0.332,1.323,0.69,1.963,1.074
					c0.637,0.382,1.259,0.79,1.864,1.221c0.003,0.002,0.966,0.736,0.431,0.312c-0.453-0.359,0.593,0.499,0.689,0.581
					c1.121,0.965,2.166,2.017,3.122,3.143c0.102,0.12,0.865,1.09,0.217,0.239c0.224,0.294,0.443,0.593,0.655,0.896
					c0.426,0.607,0.828,1.231,1.204,1.869c0.378,0.641,0.73,1.297,1.056,1.966c0.164,0.336,0.317,0.676,0.47,1.017
					c-0.434-0.969,0.057,0.182,0.106,0.311c0.532,1.42,0.948,2.884,1.24,4.372c0.074,0.377,0.135,0.756,0.199,1.136
					c-0.183-1.088,0.028,0.305,0.049,0.532C96.195,76.274,96.228,77.125,96.234,77.979c0.017,2.361,2.078,4.624,4.543,4.514
					c2.447-0.109,4.56-1.984,4.543-4.514c-0.096-13.742-8.81-25.885-21.724-30.664c-12.551-4.644-27.617-0.611-36.115,9.672
					c-8.785,10.631-10.299,25.854-3.069,37.755c7.186,11.83,21.206,17.775,34.785,15.134c15.11-2.939,26.018-16.769,26.124-31.897
					c0.016-2.362-2.101-4.623-4.543-4.514C98.301,73.575,96.251,75.448,96.234,77.979z"/>
			</g>
		</g>
	</g>
	<g id="XMLID_2_">
		<g id="XMLID_3_">
			<g id="XMLID_8_">
				<path id="XMLID_9_" d="M125.42,20.461c-6.327,6.287-12.654,12.574-18.981,18.862C96.364,49.334,86.29,59.345,76.216,69.356
					c-2.299,2.284-4.597,4.568-6.896,6.853c-1.683,1.672-1.808,4.735,0,6.384c1.814,1.654,4.629,1.784,6.424,0
					c6.327-6.287,12.654-12.574,18.981-18.862c10.074-10.011,20.149-20.022,30.223-30.033c2.299-2.284,4.597-4.568,6.896-6.853
					c1.683-1.672,1.808-4.735,0-6.384C130.031,18.807,127.216,18.677,125.42,20.461L125.42,20.461z"/>
			</g>
			<g id="XMLID_6_">
				<path id="XMLID_7_" d="M129.995,3.278c-1.688,6.167-3.376,12.333-5.064,18.5c-0.623,2.276,0.776,5.01,3.173,5.553
					c2.395,0.542,4.921-0.714,5.588-3.153c1.688-6.167,3.376-12.333,5.064-18.5c0.623-2.276-0.776-5.01-3.173-5.553
					C133.189-0.417,130.663,0.839,129.995,3.278L129.995,3.278z"/>
			</g>
			<g id="XMLID_4_">
				<path id="XMLID_5_" d="M146.721,13.593c-6.206,1.677-12.411,3.355-18.617,5.032c-2.293,0.62-3.927,3.238-3.173,5.553
					c0.76,2.334,3.131,3.817,5.588,3.153c6.206-1.677,12.411-3.355,18.617-5.032c2.292-0.62,3.927-3.238,3.173-5.553
					C151.55,14.412,149.178,12.929,146.721,13.593L146.721,13.593z"/>
			</g>
		</g>
	</g>
</g>
</svg>