<!-- Generator: Adobe Illustrator 22.1.0, SVG Export Plug-In  -->
<svg version="1.1"
	 xmlns="http://www.w3.org/2000/svg" xmlns:xlink="http://www.w3.org/1999/xlink" xmlns:a="http://ns.adobe.com/AdobeSVGViewerExtensions/3.0/"
	 x="0px" y="0px" width="170.74px" height="150px" viewBox="0 0 170.74 150" style="enable-background:new 0 0 170.74 150;"
	 xml:space="preserve">
<defs>
</defs>
<g id="XMLID_1_">
	<g id="XMLID_2_">
		<g>
			<g id="XMLID_15_">
				<path id="XMLID_16_" d="M68.979,18.299c0.014,0.015,0.419,0.482,0.173,0.183c-0.24-0.292,0.096,0.188,0.097,0.221
					c0-0.038-0.181-0.555-0.054-0.099c0.048,0.171,0.098,0.34,0.132,0.515c-0.138-0.71-0.1,0.401,0.013-0.314
					c-0.028,0.175-0.082,0.343-0.125,0.514c-0.146,0.586,0.21-0.509-0.023,0.053c-0.143,0.345,0.01,0.063,0.089-0.039
					c-0.001,0.001-0.255,0.273-0.255,0.273c-0.005,0.005-0.008,0.008-0.012,0.012c-0.026,0.026-0.052,0.052-0.078,0.078
					c-0.329,0.332-0.663,0.659-0.995,0.989c-1.572,1.562-3.143,3.123-4.715,4.685c-5.422,5.387-10.843,10.774-16.265,16.161
					c-5.855,5.818-11.709,11.635-17.564,17.453c-3.158,3.138-6.284,6.312-9.476,9.416c-0.055,0.053-0.109,0.108-0.163,0.162
					c-0.001,0.001-0.274,0.253-0.276,0.254c0.101-0.077,0.389-0.233,0.04-0.089c-0.424,0.176,0.058-0.008,0.118-0.027
					c-0.17,0.054-0.34,0.096-0.514,0.137c-0.454,0.105,0.102-0.019,0.163-0.03c-0.043,0.008-0.651-0.006-0.186,0.026
					c0.511,0.034-1.062-0.066-0.252-0.05c-0.034-0.001-0.514-0.335-0.222-0.097c0.299,0.245-0.17-0.158-0.184-0.173
					c-0.013-0.013-0.025-0.025-0.038-0.037c-0.108-0.106-0.214-0.214-0.321-0.32c-0.455-0.449-0.906-0.901-1.359-1.351
					c-2.669-2.654-5.339-5.308-8.009-7.962c-0.246-0.245-0.503-0.482-0.735-0.74c-0.305-0.34-0.02,0.004,0.038,0.052
					c-0.058-0.048-0.242-0.553-0.13-0.181c0.133,0.442-0.14-0.918-0.104-0.384c0.031,0.462,0.018-0.143,0.026-0.186
					c-0.012,0.061-0.136,0.612-0.03,0.161c0.041-0.172,0.083-0.342,0.138-0.511c-0.137,0.423-0.143,0.142,0.063-0.042
					c-0.381,0.34,0.021-0.021,0.178-0.179c0.121-0.122,0.244-0.242,0.366-0.364c1.291-1.283,2.582-2.566,3.873-3.848
					c5.15-5.117,10.299-10.235,15.449-15.352c5.97-5.932,11.939-11.864,17.909-17.796c3.665-3.641,7.329-7.283,10.994-10.925
					c0.19-0.189,0.379-0.378,0.569-0.566c0,0,0.275-0.253,0.277-0.254c-0.103,0.078-0.385,0.23-0.038,0.088
					c0.425-0.174-0.056,0.007-0.116,0.026c0.17-0.054,0.341-0.097,0.514-0.137c0.454-0.106-0.101,0.018-0.163,0.03
					c0.043-0.008,0.652,0.005,0.186-0.026c-0.514-0.034,1.065,0.073,0.252,0.05c0.035,0.001,0.512,0.337,0.222,0.097
					c-0.298-0.246,0.17,0.16,0.184,0.174c0.017,0.017,0.035,0.035,0.052,0.052c0.115,0.113,0.229,0.228,0.343,0.341
					c2.62,2.603,5.24,5.205,7.86,7.808C67.592,16.92,68.285,17.609,68.979,18.299c1.492,1.482,4.033,1.483,5.525,0
					c1.497-1.487,1.497-4.003,0-5.49c-2.348-2.333-4.697-4.666-7.045-6.999c-1.048-1.041-2.085-2.095-3.145-3.124
					c-2.602-2.529-6.344-3.436-9.746-2.01c-1.897,0.795-3.181,2.224-4.594,3.628c-1.889,1.877-3.777,3.754-5.666,5.63
					c-5.958,5.92-11.916,11.841-17.874,17.761c-5.8,5.764-11.6,11.527-17.4,17.291c-1.742,1.731-3.483,3.462-5.225,5.193
					c-2.107,2.093-3.913,4.365-3.805,7.575C0.161,62.38,4.272,65.402,7.3,68.413c1.455,1.447,2.91,2.893,4.365,4.34
					c1.403,1.395,2.745,2.638,4.672,3.344c3.14,1.15,6.625,0.137,8.99-2.09c0.316-0.298,0.617-0.613,0.925-0.919
					c1.631-1.62,3.261-3.241,4.892-4.861c5.706-5.67,11.412-11.34,17.119-17.01c6.01-5.972,12.02-11.944,18.03-17.916
					c2.825-2.807,5.859-5.507,8.512-8.478c3.147-3.525,2.863-8.615-0.302-12.014c-1.434-1.539-4.074-1.442-5.525,0
					C67.436,14.342,67.542,16.755,68.979,18.299z"/>
			</g>
			<g id="XMLID_13_">
				<path id="XMLID_14_" d="M75.339,107.873c9.031,8.973,18.062,17.946,27.094,26.919c1.294,1.285,2.587,2.571,3.881,3.856
					c1.492,1.482,4.033,1.483,5.525,0c1.497-1.488,1.497-4.003,0-5.49c-9.031-8.973-18.062-17.946-27.094-26.919
					c-1.294-1.285-2.587-2.57-3.881-3.856c-1.492-1.482-4.033-1.483-5.525,0C73.842,103.871,73.842,106.386,75.339,107.873
					L75.339,107.873z"/>
			</g>
			<g id="XMLID_11_">
				<path id="XMLID_12_" d="M87.397,95.889c9.031,8.974,18.061,17.949,27.092,26.923c1.294,1.285,2.587,2.571,3.881,3.856
					c1.492,1.483,4.033,1.483,5.525,0c1.497-1.488,1.497-4.003,0-5.49c-9.031-8.974-18.061-17.949-27.092-26.923
					c-1.294-1.285-2.587-2.571-3.881-3.856c-1.492-1.482-4.033-1.482-5.525,0C85.9,91.886,85.9,94.401,87.397,95.889L87.397,95.889z
					"/>
			</g>
			<g id="XMLID_9_">
				<path id="XMLID_10_" d="M99.45,83.909c9.031,8.974,18.063,17.949,27.094,26.923c1.294,1.285,2.587,2.571,3.881,3.856
					c1.492,1.482,4.033,1.482,5.525,0c1.497-1.488,1.497-4.003,0-5.49c-9.031-8.974-18.063-17.949-27.094-26.923
					c-1.294-1.285-2.587-2.571-3.881-3.856c-1.492-1.482-4.033-1.482-5.525,0C97.953,79.907,97.953,82.422,99.45,83.909
					L99.45,83.909z"/>
			</g>
			<g id="XMLID_7_">
				<path id="XMLID_8_" d="M96.026,13.909c-3.254,3.485-3.398,8.609-0.162,12.163c0.229,0.251,0.478,0.485,0.719,0.725
					c1.455,1.446,2.91,2.892,4.366,4.338c5.55,5.516,11.101,11.031,16.651,16.547c6.147,6.109,12.294,12.217,18.441,18.326
					c3.118,3.099,6.165,6.295,9.367,9.308c2.386,2.246,5.838,3.228,9.004,2.103c1.967-0.699,3.312-1.989,4.734-3.403
					c2.788-2.772,5.577-5.544,8.365-8.316c1.877-1.867,3.216-4.069,3.23-6.804c0.013-2.4-1.027-4.601-2.693-6.297
					c-1.118-1.137-2.263-2.249-3.394-3.372c-5.234-5.201-10.469-10.401-15.703-15.602c-6.27-6.23-12.54-12.459-18.81-18.689
					c-3.689-3.665-7.362-7.345-11.066-10.995c-3.644-3.592-9.137-3.771-12.862-0.152c-2.654,2.579-5.252,5.218-7.878,7.826
					C97.565,12.38,96.795,13.144,96.026,13.909c-1.492,1.482-1.492,4.008,0,5.49c1.497,1.488,4.028,1.487,5.525,0
					c2.203-2.189,4.406-4.377,6.609-6.565c1.134-1.127,2.263-2.259,3.403-3.38c0.096-0.094,0.189-0.19,0.285-0.283
					c0.013-0.012,0.025-0.025,0.038-0.037c0.015-0.015,0.483-0.418,0.184-0.173c-0.322,0.264,0.538-0.173,0.088-0.043
					c-0.445,0.128,0.925-0.132,0.389-0.1c-0.466,0.028,0.148,0.019,0.188,0.027c-0.061-0.013-0.614-0.135-0.16-0.028
					c0.174,0.041,0.345,0.083,0.515,0.138c-0.061-0.02-0.537-0.205-0.115-0.025c0.351,0.15,0.062-0.011-0.037-0.087
					c0.006,0.004,0.273,0.251,0.278,0.255c2.639,2.611,5.267,5.233,7.9,7.85c5.732,5.696,11.464,11.391,17.197,17.087
					c5.647,5.611,11.295,11.222,16.942,16.833c1.827,1.816,3.655,3.631,5.482,5.447c0.497,0.494,0.995,0.989,1.492,1.483
					c0.119,0.118,0.238,0.235,0.356,0.353c0.025,0.025,0.05,0.05,0.075,0.075c0.004,0.005,0.009,0.009,0.014,0.013
					c0.045,0.045,0.056,0.056,0.129,0.139c0.364,0.412-0.168-0.388,0.041,0.103c0.179,0.421-0.005-0.052-0.025-0.113
					c0.055,0.169,0.098,0.339,0.139,0.512c0.108,0.451-0.016-0.098-0.028-0.159c0.008,0.039,0,0.65,0.028,0.186
					c0.032-0.533-0.23,0.828-0.101,0.386c0.107-0.37-0.068,0.13-0.128,0.182c0.118-0.101,0.483-0.48-0.091,0.09
					c-0.216,0.215-0.433,0.43-0.649,0.645c-1.233,1.226-2.466,2.451-3.698,3.677c-1.445,1.437-2.89,2.873-4.335,4.31
					c-0.442,0.44-0.882,0.881-1.327,1.319c-0.095,0.094-0.189,0.19-0.285,0.284c-0.013,0.012-0.025,0.025-0.038,0.037
					c-0.015,0.015-0.484,0.416-0.184,0.172c0.323-0.263-0.539,0.17-0.087,0.042c0.432-0.122-1.105,0.374-0.222,0.071
					c-0.02,0.007-0.67,0.025-0.187,0.035c0.431,0.009-0.099-0.028-0.18-0.042c-0.032-0.006-0.613-0.145-0.205-0.044
					c0.368,0.091-0.115-0.049-0.18-0.121c0.277,0.306,0.1,0.1-0.084-0.081c-0.058-0.057-0.114-0.115-0.173-0.171
					c-0.39-0.379-0.772-0.767-1.158-1.15c-1.655-1.645-3.311-3.29-4.966-4.935c-5.5-5.466-11-10.932-16.5-16.397
					c-5.824-5.787-11.648-11.575-17.471-17.362c-3.033-3.014-6.085-6.011-9.1-9.043c-0.026-0.026-0.053-0.052-0.078-0.078
					c-0.004-0.004-0.007-0.007-0.011-0.011c-0.001-0.001-0.256-0.274-0.257-0.275c0.072,0.092,0.247,0.39,0.086,0.037
					c-0.19-0.415,0.003,0.053,0.024,0.114c-0.056-0.169-0.098-0.339-0.139-0.512c-0.109-0.451,0.015,0.099,0.028,0.16
					c-0.008-0.039,0-0.65-0.028-0.187c-0.032,0.532,0.23-0.828,0.101-0.387c-0.108,0.37,0.069-0.131,0.129-0.182
					c-0.116,0.1-0.462,0.503,0.09-0.089c1.435-1.537,1.531-3.969,0-5.49C100.098,12.466,97.466,12.366,96.026,13.909z"/>
			</g>
			<g id="XMLID_5_">
				<path id="XMLID_6_" d="M137.257,91.119c3.383-4.585,6.215-9.537,8.286-14.842c1.162-2.976,2.852-7.525,1.009-10.561
					c-0.516-0.85-1.28-1.517-1.979-2.212c-1.249-1.242-2.499-2.483-3.748-3.725c-8.338-8.286-16.676-16.572-25.015-24.858
					c-2.531-2.515-5.054-5.036-7.592-7.544c-3.472-3.431-9.569-1.664-13.656-0.408c-9.107,2.799-16.994,7.873-23.839,14.389
					c-2.592,2.468-5.358,4.749-7.957,7.211c-3.484,3.301-6.701,6.86-9.495,10.761c-1.421,1.984-2.703,4.069-3.801,6.247
					c-0.927,1.839-2.032,3.787-0.898,5.815c0.228,0.407,0.581,0.805,0.865,1.14c2.184,2.578,5.739,3.868,9.081,3.71
					c2.866-0.135,5.411-1.138,8.038-2.184c2.843-1.132,5.667-2.315,8.468-3.545c3.337-1.465,6.647-2.999,9.9-4.641
					c0.445-0.224,0.89-0.45,1.33-0.683c-1.003,0.131-2.007,0.261-3.01,0.391c2.801,1.104,6.027,1.553,9.013,1.621
					c6.177,0.14,12.23-2.094,16.408-6.699c-1.842,0-3.683,0-5.525,0c2.255,2.256,4.263,4.795,6.328,7.219
					c3.642,4.274,7.253,8.575,10.858,12.88c5.604,6.693,11.122,13.459,16.761,20.122c0.062,0.073,0.121,0.148,0.183,0.221
					c0.013,0.015,0.025,0.03,0.037,0.045c0.439,0.515,0.017-0.089,0.184,0.253c0.269,0.552-0.123-0.524,0.033,0.063
					c0.033,0.124,0.118,0.83,0.099,0.354c-0.025-0.596-0.025,0.622,0,0.026c0.02-0.476-0.065,0.23-0.099,0.354
					c-0.156,0.586,0.237-0.488-0.033,0.063c-0.258,0.527,0.353-0.343-0.049,0.108c-0.051,0.057-0.097,0.106-0.148,0.157
					c-0.493,0.491-0.987,0.981-1.481,1.471c-2.775,2.757-5.549,5.514-8.324,8.271c-7.529,7.482-15.059,14.964-22.588,22.446
					c-1.801,1.79-3.599,3.583-5.404,5.369c-0.025,0.025-0.05,0.05-0.075,0.074c-0.078,0.077-0.507,0.538-0.09,0.087
					c-0.097,0.105-0.681,0.294-0.051,0.071c-0.221,0.078-0.464,0.14-0.693,0.18c0.739-0.128-0.321-0.049,0.139-0.03
					c0.479,0.019-0.231-0.065-0.356-0.098c-0.591-0.155,0.493,0.233-0.064-0.033c-0.555-0.264,0.406,0.307-0.11-0.049
					c-0.047-0.043-0.093-0.086-0.14-0.129c-0.254-0.216-0.517-0.419-0.791-0.607c-0.028-0.02-0.056-0.038-0.084-0.058
					c-0.565-0.408-1.139-0.806-1.704-1.215c-1.262-0.915-2.513-1.846-3.756-2.787c-0.4-0.303-0.799-0.608-1.199-0.912
					c-0.497-0.378,0.774,0.597-0.013-0.01c-0.253-0.195-0.506-0.391-0.759-0.587c-1.025-0.794-2.045-1.594-3.06-2.4
					c-5.516-4.375-10.912-8.9-16.212-13.531c-7.335-6.41-14.483-13.03-21.462-19.821c-1.939-1.886-3.904-3.758-5.759-5.725
					c-0.806-0.854-1.587-1.731-2.345-2.627c-0.803-0.95-1.35-1.637-1.91-2.386c-2.491-3.334-4.695-6.896-6.499-10.643
					c-0.187-0.388-0.369-0.779-0.547-1.172c-0.106-0.235-0.56-1.357-0.216-0.479c-0.289-0.739-0.587-1.471-0.847-2.221
					c-0.406-1.174-0.683-2.352-0.96-3.558c-0.143-0.62,0.055,1.079,0.029,0.188c-0.006-0.195-0.019-0.392-0.028-0.587
					c-0.005-0.109,0.076-0.413,0.026-0.503c-0.004-0.007-0.195,1.095-0.085,0.712c0.054-0.186,0.193-0.511-0.11,0.198
					c-0.102,0.238-0.233,0.672-0.575,0.894c0.065-0.042,0.114-0.119,0.171-0.17c2.079-1.865,3.988-3.963,5.968-5.93
					c7.57-7.523,15.14-15.045,22.711-22.568c2.627-2.611,5.254-5.221,7.881-7.832c0.286-0.284,0.58-0.562,0.858-0.853
					c0.343-0.359,0.643-0.393-0.354,0.207c0.417-0.251-1.133,0.359-0.324,0.161c0.529-0.129-1.13,0.035-0.148,0.028
					c0.704-0.005,1.387,0.048,2.089,0.097c0.441,0.031-0.282-0.037-0.302-0.041c0.207,0.04,0.419,0.066,0.626,0.102
					c0.45,0.079,0.898,0.169,1.344,0.269c1.149,0.256,2.285,0.569,3.407,0.923c3.177,1.002,5.974,2.392,9.066,3.694
					c1.941,0.818,4.185,0.578,5.345-1.393c0.959-1.629,0.552-4.489-1.402-5.312c-3.631-1.53-7.164-3.288-10.932-4.477
					c-2.246-0.709-4.524-1.211-6.863-1.495c-1.482-0.18-3.067-0.254-4.518,0.174c-2.405,0.709-4.369,3.372-6.069,5.061
					c-7.592,7.544-15.184,15.089-22.776,22.633c-3.08,3.06-6.159,6.121-9.239,9.181c-0.658,0.654-1.348,1.289-1.98,1.968
					c-1.375,1.476-1.772,3.303-1.552,5.264c0.378,3.366,1.628,6.511,3.016,9.581c1.719,3.804,3.873,7.419,6.31,10.81
					c3.122,4.345,6.718,8.17,10.535,11.911c3.863,3.786,7.779,7.518,11.75,11.192c10.854,10.045,22.102,19.694,33.901,28.632
					c1.834,1.389,3.711,2.717,5.565,4.08c0.25,0.184-1.077-0.843-0.166-0.083c1.161,0.969,2.555,1.67,4.061,1.898
					c2.916,0.442,5.617-0.373,7.78-2.388c0.463-0.431,0.899-0.893,1.347-1.338c6.904-6.86,13.807-13.721,20.711-20.581
					c5.268-5.235,10.723-10.339,15.83-15.73c2.012-2.124,2.885-4.852,2.404-7.729c-0.309-1.851-1.249-3.255-2.445-4.657
					c-0.572-0.671-1.126-1.358-1.689-2.036c-2.914-3.512-5.833-7.021-8.755-10.526c-7.073-8.484-14.103-17.018-21.378-25.333
					c-0.753-0.861-1.498-1.738-2.308-2.548c-1.431-1.431-4.111-1.558-5.525,0c-0.477,0.526-0.972,1.029-1.507,1.497
					c-0.125,0.109-0.754,0.615-0.211,0.202c-0.283,0.215-0.581,0.415-0.881,0.607c-0.484,0.311-0.986,0.594-1.502,0.85
					c-0.201,0.1-0.405,0.194-0.61,0.287c0.829-0.376-0.443,0.148-0.604,0.201c-1.002,0.33-2.032,0.557-3.075,0.715
					c1.059-0.16-0.488,0.024-0.762,0.039c-0.577,0.032-1.155,0.04-1.732,0.027c-0.457-0.01-0.915-0.034-1.371-0.071
					c-0.262-0.021-0.522-0.052-0.783-0.075c-0.872-0.078,0.723,0.131,0.168,0.027c-0.795-0.149-1.588-0.267-2.376-0.455
					c-0.852-0.203-1.664-0.508-2.503-0.743c-1.486-0.415-2.655,0.152-3.894,0.785c-1.409,0.719-2.831,1.413-4.26,2.092
					c-5.349,2.542-10.306,4.761-15.787,6.753c-0.786,0.286-1.579,0.506-2.398,0.676c-0.673,0.14,0.873-0.014-0.202,0.031
					c-0.376,0.016-0.747,0.039-1.124,0.027c-0.247-0.009-0.491-0.03-0.737-0.053c1.091,0.105,0.112-0.019-0.146-0.089
					c-0.197-0.053-0.388-0.131-0.585-0.183c-0.709-0.189,0.743,0.481,0.014-0.014c-0.138-0.094-0.299-0.164-0.442-0.252
					c-0.25-0.155-0.586-0.615-0.205-0.118c0.437,0.569-0.158-0.189-0.335-0.355c-0.441-0.414-0.403-0.675,0.16,0.249
					c-0.041-0.067-0.092-0.127-0.132-0.194c0,1.306,0,2.612,0,3.919c3.171-7.054,7.401-12.056,12.972-17.333
					c2.094-1.984,4.278-3.868,6.422-5.798c0.947-0.852,1.855-1.739,2.774-2.619c0.701-0.671,1.422-1.321,2.163-1.948
					c0.365-0.309,0.735-0.613,1.109-0.912c0.159-0.127,0.318-0.254,0.48-0.379c-0.388,0.299,0.212-0.154,0.339-0.247
					c2.911-2.141,6.045-3.982,9.323-5.509c0.37-0.172,0.742-0.339,1.115-0.505c0.101-0.045,0.768-0.331,0.32-0.142
					c-0.41,0.174,0.106-0.043,0.157-0.063c0.754-0.299,1.508-0.593,2.273-0.863c1.323-0.467,2.665-0.881,4.027-1.221
					c0.57-0.142,1.144-0.272,1.721-0.385c0.264-0.052,0.529-0.1,0.795-0.144c0.109-0.018,0.219-0.032,0.327-0.052
					c0.764-0.141-0.748,0.063-0.312,0.04c0.806-0.042,1.632-0.034,2.433-0.083c0.529-0.033-1.134-0.2-0.496-0.06
					c0.073,0.016,0.282,0.109,0.347,0.094c-0.37,0.093-1.219-0.693-1.238-0.718c0.085,0.111,0.208,0.203,0.305,0.303
					c4.76,4.886,9.684,9.623,14.523,14.432c6.383,6.343,12.766,12.686,19.149,19.028c0.9,0.895,1.801,1.79,2.701,2.684
					c0.362,0.359,0.749,0.905,1.185,1.178c-0.37-0.231-0.588-0.794-0.738-1.264c0.212,0.665,0.011-0.745-0.029-0.451
					c-0.028,0.205,0.018,0.45,0.01,0.658c-0.004,0.101-0.102,0.651-0.058,0.679c-0.126-0.08,0.182-1.064-0.03-0.025
					c-0.136,0.667-0.314,1.326-0.513,1.977c-0.221,0.722-0.47,1.436-0.739,2.142c-0.127,0.333-0.259,0.664-0.393,0.994
					c-0.286,0.706-0.112,0.258-0.045,0.108c-0.105,0.237-0.21,0.475-0.318,0.711c-0.867,1.9-1.847,3.748-2.909,5.547
					c-1.213,2.054-2.542,4.034-3.959,5.954c-1.248,1.692-0.286,4.331,1.402,5.312C133.893,93.664,136.005,92.815,137.257,91.119
					L137.257,91.119z"/>
			</g>
			<g id="XMLID_3_">
				<path id="XMLID_4_" d="M32.171,88.194c-1.978,2.541-3.952,5.086-5.916,7.637c-0.493,0.641-0.986,1.281-1.478,1.923
					c-0.105,0.137-0.205,0.283-0.317,0.414c-0.002,0.003-0.078,0.089-0.075,0.098c0.429-0.596,0.467-0.666,0.114-0.209
					c-0.204,0.262-0.407,0.524-0.611,0.786c-2.573,3.735-1.492,8.399,1.558,11.431c3.398,3.377,6.797,6.754,10.195,10.131
					c8.845,8.79,17.691,17.579,26.536,26.369c0.234,0.233,0.462,0.474,0.704,0.699c2.986,2.78,7.577,3.447,11.049,1.096
					c0.264-0.202,0.527-0.405,0.791-0.607c0.46-0.351,0.39-0.313-0.211,0.115c0.015-0.021,0.053-0.035,0.074-0.051
					c0.166-0.123,0.34-0.238,0.509-0.358c0.646-0.457,1.287-0.922,1.926-1.39c2.81-2.057,5.571-4.18,8.311-6.328
					c1.658-1.3,1.368-4.13,0-5.49c-1.637-1.627-3.863-1.303-5.525,0c-2.944,2.308-5.938,4.527-9.164,6.861
					c-0.305,0.221-0.464,0.34-0.869,0.662c-0.934,0.74,0.355-0.151-0.251,0.178c-0.428,0.232,0.668,0.021-0.236,0.084
					c-1.144,0.08,0.507,0.016-0.197,0.015c-0.703-0.001,0.947,0.071-0.197-0.016c-0.909-0.069,0.197,0.151-0.235-0.084
					c-0.541-0.294,0.538,0.602-0.251-0.178c-0.175-0.173-0.349-0.347-0.524-0.521c-3.209-3.189-6.418-6.378-9.627-9.566
					c-8.72-8.665-17.44-17.33-26.16-25.995c-0.445-0.442-0.893-0.882-1.335-1.327c-0.077-0.077-0.155-0.154-0.232-0.231
					c-0.004-0.004-0.007-0.007-0.011-0.011c-0.086-0.092-0.173-0.185-0.259-0.277c0.238,0.29,0.234,0.247-0.011-0.127
					c-0.008,0.609,0.025-0.001-0.033-0.249c-0.061-0.282-0.053-0.231,0.023,0.154c0.022-0.463,0.001-0.472-0.062-0.026
					c0.04-0.228,0.103-0.469,0.181-0.689c-0.166,0.373-0.142,0.356,0.072-0.051c-0.257,0.281-0.227,0.252,0.088-0.089
					c0.244-0.301,0.477-0.612,0.713-0.919c0.373-0.485,0.745-0.972,1.118-1.457c1.777-2.31,3.56-4.616,5.35-6.916
					c1.289-1.657,1.625-3.875,0-5.49C36.351,86.857,33.469,86.525,32.171,88.194L32.171,88.194z"/>
			</g>
		</g>
	</g>
</g>
</svg>