<!-- Generator: Adobe Illustrator 22.1.0, SVG Export Plug-In  -->
<svg version="1.1"
	 xmlns="http://www.w3.org/2000/svg" xmlns:xlink="http://www.w3.org/1999/xlink" xmlns:a="http://ns.adobe.com/AdobeSVGViewerExtensions/3.0/"
	 x="0px" y="0px" width="182.032px" height="153px" viewBox="0 0 182.032 153" style="enable-background:new 0 0 182.032 153;"
	 xml:space="preserve">
<style type="text/css">
	.st0{stroke:#000000;stroke-width:3;stroke-miterlimit:10;}
</style>
<defs>
</defs>
<g>
	<path class="st0" d="M91.139,44.419c22.318,1.017,39.4,10.756,50.639,30.362c0.709,1.236,0.747,2.152,0.045,3.394
		c-4.962,8.767-11.449,16.013-20.043,21.448c-10.316,6.524-21.567,9.438-33.596,8.694c-21.296-1.317-37.246-11.512-47.898-30.022
		c-0.761-1.322-0.752-2.282,0.011-3.603C51.587,55.135,68.663,45.388,91.139,44.419z M90.977,50.029
		C71.954,50.712,57.1,58.827,46.643,74.856c-0.705,1.081-0.869,1.926-0.117,3.129c6.426,10.278,15.321,17.619,26.652,21.731
		c11.719,4.254,23.588,4.355,35.417,0.029c11.471-4.195,20.385-11.478,26.914-21.765c0.675-1.063,0.694-1.849-0.005-2.932
		C125.066,58.877,110.167,50.714,90.977,50.029z"/>
	<g>
		<path class="st0" d="M56.97,142.736c-10.771-0.034-21.542-0.017-32.313-0.02c-0.903,0-1.807,0-2.926,0c0-1.378,0-2.382,0-3.386
			c-0.003-6.712,0.04-13.425-0.05-20.137l0.11-11.662c0.015-1.208-0.146-2.308-0.977-3.055c-0.346-0.311-0.803-0.562-1.417-0.732
			h-1.171c-0.614,0.17-1.072,0.422-1.417,0.732c-0.831,0.747-0.992,1.847-0.977,3.055c0.002,0.15,0.005,0.301,0.012,0.454
			c0.048,1.168,0.168,2.334,0.169,3.501c0.009,11.388-0.001,22.776-0.005,34.164c0,0.897,0,1.795,0,2.838
			c0.938,0,1.87,0,2.805,0.001c13.18,0.003,26.074,0.023,38.962-0.074c0.848-0.006,2.033-0.876,2.466-1.669
			C61.452,144.528,59.976,142.746,56.97,142.736z"/>
	</g>
	<g>
		<path class="st0" d="M124.663,142.736c10.771-0.034,21.542-0.017,32.313-0.02c0.903,0,1.807,0,2.926,0c0-1.378,0-2.382,0-3.386
			c0.003-6.712-0.04-13.425,0.05-20.137l-0.11-11.662c-0.015-1.208,0.146-2.308,0.977-3.055c0.346-0.311,0.803-0.562,1.417-0.732
			h1.171c0.614,0.17,1.072,0.422,1.417,0.732c0.831,0.747,0.992,1.847,0.977,3.055c-0.002,0.15-0.005,0.301-0.012,0.454
			c-0.048,1.168-0.168,2.334-0.169,3.501c-0.009,11.388,0.001,22.776,0.005,34.164c0,0.897,0,1.795,0,2.838
			c-0.938,0-1.87,0-2.805,0.001c-13.18,0.003-26.074,0.023-38.962-0.074c-0.848-0.006-2.033-0.876-2.466-1.669
			C120.181,144.528,121.657,142.746,124.663,142.736z"/>
	</g>
	<path class="st0" d="M16.406,14.182c3.674,0,7.016,0,10.357,0c9.83,0,19.659,0,29.489,0c0.624,0,1.249-0.013,1.872,0.012
		c1.931,0.078,2.858,1.301,2.885,3.027c0.028,1.773-1.227,2.601-2.903,2.709c-1.166,0.075-2.339,0.027-3.51,0.027
		c-9.908,0-19.815-0.001-29.723-0.002c-0.769,0-1.538,0-2.56,0c-0.079,1.121-0.206,2.096-0.207,3.071
		c-0.011,10.61-0.002,21.219,0,31.829c0,1.886-0.172,3.738-2.573,3.994c-1.993,0.212-3.112-1.059-3.12-3.415
		c-0.021-6.865-0.008-13.73-0.008-20.595C16.406,28.061,16.406,21.282,16.406,14.182z"/>
	<path class="st0" d="M165.517,14.288c0.045,0.8,0.117,1.481,0.117,2.161c0.006,12.873,0.005,25.747,0.001,38.62
		c0,0.545,0.18,1.297-0.102,1.596c-0.783,0.832-1.712,1.935-2.687,2.05c-0.81,0.096-2.013-0.887-2.584-1.71
		c-0.462-0.666-0.312-1.804-0.314-2.734c-0.017-10.377-0.007-20.753-0.019-31.13c-0.001-0.988-0.1-1.977-0.167-3.195
		c-1.042,0-1.88,0-2.718,0c-10.767-0.001-21.534,0.052-32.3-0.077c-1.195-0.014-2.589-0.851-3.471-1.729
		c-0.411-0.409-0.154-2.199,0.401-2.701c0.81-0.733,2.157-1.204,3.279-1.211c12.795-0.079,25.591-0.051,38.386-0.044
		C164.024,14.184,164.708,14.248,165.517,14.288z"/>
	<path class="st0" d="M88.219,16.892c-0.002-3.901-0.021-7.802,0.004-11.702c0.016-2.508,1.023-3.809,2.878-3.681
		c2.237,0.154,2.729,1.686,2.725,3.612c-0.017,7.798,0.004,15.597-0.012,23.395c-0.005,2.473-1.043,3.82-2.878,3.687
		c-2.227-0.162-2.733-1.696-2.722-3.621C88.238,24.685,88.221,20.789,88.219,16.892z"/>
	<path class="st0" d="M16.569,79.298c-3.978,0-7.956,0.011-11.934-0.005c-1.788-0.007-3.082-0.728-3.134-2.69
		c-0.055-2.098,1.277-2.886,3.169-2.89c8.028-0.017,16.056-0.013,24.084-0.002c1.816,0.002,3.301,0.527,3.347,2.695
		c0.049,2.279-1.433,2.9-3.377,2.904c-4.052,0.008-8.103,0.003-12.155,0.003C16.569,79.308,16.569,79.303,16.569,79.298z"/>
	<path class="st0" d="M165.467,73.705c3.978,0.002,7.955-0.008,11.933,0.007c1.93,0.007,3.194,0.868,3.13,2.928
		c-0.061,1.956-1.368,2.656-3.16,2.657c-8.028,0.005-16.057,0.005-24.085,0.007c-1.838,0-3.267-0.558-3.34-2.694
		c-0.079-2.314,1.448-2.89,3.369-2.9C157.364,73.688,161.415,73.702,165.467,73.705z"/>
	<path class="st0" d="M93.819,136.34c0.003,3.822,0.022,7.645-0.004,11.467c-0.017,2.529-0.997,3.799-2.869,3.686
		c-2.256-0.136-2.733-1.684-2.73-3.6c0.014-7.874-0.005-15.748,0.022-23.621c0.008-2.331,1.039-3.567,2.852-3.459
		c2.088,0.125,2.725,1.515,2.726,3.371C93.818,128.237,93.817,132.288,93.819,136.34z"/>
	<path d="M99.012,76.382c0.075,4.329-3.629,8.087-7.992,8.107c-4.236,0.02-7.926-3.61-7.993-7.864
		c-0.068-4.332,3.661-8.119,7.99-8.114C95.288,68.516,98.938,72.109,99.012,76.382z"/>
	<path d="M108.894,82.363c0.665-2.139,1.006-4.187,1.039-6.143c-0.086-8.068-5.209-15.015-12.657-17.646
		c-0.302-0.063-0.593-0.156-0.859-0.282c-0.854-0.258-1.736-0.461-2.642-0.603c-0.737-0.115-1.476-0.179-2.212-0.203
		c-0.04,0.14-0.083,0.287-0.128,0.443c-0.259-0.168-0.511-0.314-0.752-0.45c-7.848,0.129-15.228,5.302-17.621,12.999
		c-0.665,2.139-1.006,4.187-1.039,6.143c0.086,8.068,5.209,15.015,12.657,17.646c0.302,0.063,0.593,0.156,0.859,0.282
		c0.854,0.258,1.736,0.461,2.642,0.603c0.737,0.115,1.476,0.179,2.212,0.203c0.04-0.14,0.083-0.287,0.128-0.443
		c0.259,0.168,0.511,0.314,0.752,0.45C99.121,95.233,106.501,90.06,108.894,82.363z M91.051,89.735
		c-5.96-0.006-11.046-3.988-12.696-9.39c-0.405-1.255-0.63-2.591-0.64-3.975c-0.055-7.225,5.957-13.27,13.192-13.263
		c5.96,0.006,11.046,3.988,12.696,9.39c0.405,1.255,0.63,2.591,0.64,3.975C104.298,83.697,98.286,89.742,91.051,89.735z"/>
</g>
</svg>