<!-- Generator: Adobe Illustrator 22.1.0, SVG Export Plug-In  -->
<svg version="1.1"
	 xmlns="http://www.w3.org/2000/svg" xmlns:xlink="http://www.w3.org/1999/xlink" xmlns:a="http://ns.adobe.com/AdobeSVGViewerExtensions/3.0/"
	 x="0px" y="0px" width="272.648px" height="260.119px" viewBox="0 0 272.648 260.119"
	 style="enable-background:new 0 0 272.648 260.119;" xml:space="preserve">
<style type="text/css">
	.st0{fill:#CD8955;}
	.st1{fill:#E5C879;}
	.st2{fill:#E0B983;}
</style>
<defs>
</defs>
<g>
	<g>
		<path class="st0" d="M121.362,61.41c1.738-2.811,3.764-3.817,7.091-3.809c46.227,0.11,92.454,0.075,138.681,0.072
			c1.727,0,3.453-0.03,5.18-0.046l0,0l0,0c0-3.69,0.002-7.381,0.003-11.071c-16.182-0.019-32.364-0.105-48.545,0.004
			c-3.022,0.02-4.202-0.659-4.1-3.946c0.241-7.818,0.202-15.652,0.014-23.473c-0.071-2.959,0.798-3.88,3.8-3.838
			c11.538,0.161,23.079,0.063,34.618,0.061c-0.979-2.21-3.232-3.029-4.924-4.443c-7.909-6.611-17.233-10.545-27.345-10.581
			C151.911,0.083,77.986,0.195,4.062,0.26c-1.287,0.001-3.76-1.179-3.7,1.476c0.036,1.574-0.675,3.371-0.195,4.94
			c2.379,0.151,4.297,1.988,4.57,4.331c0.26,0.491,0.237,0.975-0.051,1.483c-0.382,2.044-2.025,3.638-4.091,3.952
			c-0.8,1.594-0.646,3.647,0.436,5.133c2.148,0.529,3.743,2.463,3.743,4.774c0,2.456-1.8,4.485-4.152,4.856
			c-0.755,1.575-0.727,3.448,0.113,4.992c9.459,5.839,15.766,16.296,15.766,28.228c0,11.806-6.176,22.163-15.468,28.037
			c-1.073,1.641-1.211,4.49-0.453,6.335c2.1,0.312,3.764,1.947,4.119,4.032c0.273,0.454,0.285,0.875,0.05,1.328
			c-0.228,2.267-1.995,4.076-4.24,4.376c-0.44,1.251-0.497,2.878-0.157,4.128c2.285,0.231,4.105,2.026,4.382,4.298
			c0.232,0.394,0.238,0.766,0.004,1.175c-0.268,2.296-2.113,4.108-4.425,4.324c-0.709,1.771,0.173,3.862,0.028,5.714
			c-0.146,1.849,1.653,1.32,2.712,1.319c24.595-0.01,49.19-0.058,73.785-0.098c9.81-16.166,20.852-31.521,31.153-47.364
			C112.456,75.162,117.055,68.376,121.362,61.41z M171.818,18.649c-0.026-2.284,0.506-3.351,3.079-3.327
			c11.559,0.11,23.12,0.088,34.679,0.013c2.216-0.014,3.048,0.703,3.023,2.972c-0.094,8.37-0.116,16.743,0.011,25.112
			c0.039,2.534-0.96,3.168-3.29,3.119c-4.283-0.089-8.569-0.066-12.855-0.049c-1.428,0.006-2.857,0.011-4.285,0.011
			c-1.428,0-2.857-0.006-4.285-0.012c-4.286-0.019-8.571-0.045-12.855,0.054c-2.402,0.055-3.268-0.714-3.232-3.179
			C171.93,35.126,171.912,26.886,171.818,18.649z M127.947,15.327c5.715,0.132,11.435,0.043,17.153,0.043
			c5.851,0.002,11.702,0.053,17.552-0.026c2.007-0.027,2.765,0.631,2.862,2.736c0.405,8.77-0.806,17.477-0.839,26.223
			c-0.007,1.81-0.987,2.205-2.539,2.202c-11.569-0.021-23.138-0.047-34.706,0.022c-2.164,0.013-2.708-0.927-2.694-2.887
			c0.06-8.377,0.098-16.756-0.022-25.131C124.678,16.044,125.541,15.271,127.947,15.327z M43.347,6.874
			c0.048-2.079-0.815-4.329,3.017-4.423c3.991-0.098,3.399,2.147,3.362,4.493c-0.013,0.791-0.002,1.583-0.002,2.375
			c0,1.055-0.087,2.12,0.017,3.165c0.243,2.438-0.127,3.796-3.245,3.809c-3.224,0.013-3.324-1.537-3.181-3.878
			C43.427,10.573,43.304,8.72,43.347,6.874z M43.338,83.092c0-1.056,0.031-2.113-0.007-3.167c-0.079-2.16-0.37-3.97,3.028-4.025
			c3.465-0.056,3.509,1.612,3.389,4.085c-0.116,2.37-0.176,4.763,0.016,7.123c0.207,2.544-0.615,3.375-3.263,3.397
			c-2.747,0.022-3.45-1.006-3.188-3.455C43.452,85.744,43.338,84.412,43.338,83.092z M46.632,35.472
			c-4.049,0.069-3.254-2.301-3.292-4.558c-0.013-0.791-0.002-1.583-0.002-2.375c0-0.792-0.011-1.583,0.002-2.375
			c0.038-2.256-0.757-4.627,3.292-4.558c3.786,0.064,3.073,2.217,3.089,4.36c0.012,1.715,0.012,3.43,0,5.145
			C49.705,33.255,50.417,35.408,46.632,35.472z M43.301,49.309c0.187-1.961,0.079-3.956,0.025-5.934
			c-0.063-2.309-0.339-4.202,3.26-4.201c3.741,0.001,3.146,2.128,3.138,4.312c-0.003,0.924,0,1.847,0,2.771
			c0,1.056-0.079,2.118,0.016,3.165c0.208,2.284-0.153,3.575-3.068,3.577C43.727,53.002,43.052,51.922,43.301,49.309z M46.61,57.554
			c3.298-0.043,3.246,1.644,3.132,3.922c-0.092,1.842-0.004,3.694-0.023,5.54c-0.022,2.126,0.735,4.303-3.068,4.377
			c-4.04,0.079-3.293-2.261-3.313-4.539c-0.007-0.792-0.001-1.583-0.001-2.375c0-1.055,0.101-2.123-0.02-3.164
			C43.027,58.796,43.586,57.594,46.61,57.554z M46.602,94.273c3.283-0.04,3.261,1.622,3.141,3.911
			c-0.097,1.842-0.002,3.693-0.024,5.54c-0.025,2.121,0.752,4.31-3.059,4.388c-4.034,0.082-3.31-2.243-3.321-4.532
			c-0.004-0.792-0.001-1.583-0.001-2.375c0-1.055,0.099-2.122-0.02-3.164C43.033,95.535,43.566,94.31,46.602,94.273z
			 M46.491,127.246c-3.233,0.015-3.315-1.551-3.176-3.885c0.11-1.841-0.01-3.694,0.031-5.54c0.045-2.084-0.809-4.324,3.021-4.417
			c3.997-0.096,3.39,2.157,3.358,4.497c-0.011,0.792-0.002,1.583-0.002,2.375c0,1.056-0.088,2.12,0.017,3.165
			C49.988,125.886,49.603,127.232,46.491,127.246z M97.207,46.498c-4.285,0.001-8.572-0.048-12.856-0.018
			c-1.428,0.01-2.856,0.029-4.284,0.061c-2.382,0.053-3.286-0.677-3.248-3.162c0.123-8.236,0.101-16.476,0.011-24.714
			c-0.025-2.265,0.47-3.368,3.062-3.343c11.559,0.111,23.12,0.088,34.679,0.013c2.199-0.014,3.065,0.668,3.04,2.955
			c-0.095,8.503-0.086,17.008-0.008,25.511c0.02,2.135-0.866,2.749-2.856,2.723C108.9,46.447,103.053,46.497,97.207,46.498z"/>
		<path class="st1" d="M272.314,57.627c-1.727,0.016-3.453,0.046-5.18,0.046c-46.227,0.003-92.454,0.037-138.681-0.072
			c-3.327-0.008-5.353,0.998-7.091,3.809c-4.307,6.966-8.906,13.752-13.372,20.62c-10.301,15.843-21.344,31.198-31.153,47.364
			c34.017,0.041,68.035,0.07,102.052,0.15c1.974,0.005,3.135-0.804,4.165-2.413c4.469-6.982,8.973-13.943,13.602-20.82
			c2.695-4.004,6.116-6.614,11.464-6.409c8.094,0.309,16.218,0.321,24.312,0.001c6.006-0.237,9.943,2.638,12.449,7.472
			c3.392,6.546,6.276,13.358,9.32,20.082c0.688,1.519,1.613,2.158,3.35,2.1c3.982-0.133,7.975-0.145,11.957-0.002
			c2.26,0.081,2.971-0.717,2.961-2.965C272.367,103.603,272.353,80.615,272.314,57.627z M190.271,68.708
			c-0.145,1.825-0.638,2.599-2.545,2.561c-4.499-0.089-9.002-0.107-13.5-0.002c-3.21,0.075-2.237-2.219-2.354-3.869
			c-0.125-1.757-0.265-3.54,2.469-3.362c2.241,0.146,4.499,0.03,6.749,0.03c1.588-0.004,3.212,0.208,4.759-0.046
			C189.794,63.372,190.541,65.328,190.271,68.708z M209.982,71.273c-2.239-0.158-4.498-0.031-6.748-0.031
			c-1.588,0.004-3.177,0.008-4.765,0.003c-3.992-0.013-5.469-2.171-4.22-5.932c0.481-1.448,1.538-1.228,2.536-1.235
			c4.368-0.03,8.742,0.128,13.102-0.063c2.978-0.131,2.72,1.695,2.681,3.59C212.529,69.41,213.038,71.488,209.982,71.273z"/>
		<path class="st0" d="M219.714,103.387c-14.704-0.046-25.41,10.802-25.335,25.492c0.074,14.313,10.609,25.37,25.496,25.383
			c13.721,0.032,25.678-10.345,25.299-25.496C244.785,113.233,234.227,103.433,219.714,103.387z M220.155,136.431
			c-3.774,0.089-7.576-3.563-7.59-7.289c-0.016-4.263,3.216-7.647,7.263-7.606c3.876,0.04,7.116,3.344,7.105,7.246
			C226.92,133.121,224.07,136.338,220.155,136.431z"/>
		<path class="st2" d="M223.485,15.303c-3.002-0.042-3.871,0.879-3.8,3.838c0.188,7.821,0.227,15.655-0.014,23.473
			c-0.102,3.287,1.079,3.966,4.1,3.946c16.181-0.11,32.363-0.023,48.545-0.004c-0.833-12.176-5.621-22.55-14.212-31.192
			C246.564,15.366,235.023,15.464,223.485,15.303z"/>
		<path class="st2" d="M97.207,46.497c5.846,0,11.693-0.049,17.539,0.027c1.99,0.026,2.876-0.588,2.856-2.723
			c-0.078-8.503-0.088-17.008,0.008-25.511c0.026-2.287-0.841-2.969-3.04-2.955c-11.559,0.074-23.12,0.098-34.679-0.013
			c-2.592-0.025-3.087,1.078-3.062,3.343c0.09,8.237,0.112,16.477-0.011,24.714c-0.037,2.486,0.867,3.216,3.248,3.162
			c1.428-0.032,2.856-0.051,4.284-0.061C88.635,46.45,92.921,46.498,97.207,46.497z"/>
		<path class="st2" d="M175.041,46.541c4.283-0.099,8.569-0.073,12.855-0.054c1.429,0.006,2.857,0.012,4.285,0.012
			c1.429,0,2.857-0.005,4.285-0.011c4.286-0.017,8.571-0.04,12.855,0.049c2.33,0.049,3.329-0.586,3.29-3.119
			c-0.127-8.369-0.105-16.742-0.011-25.112c0.025-2.27-0.807-2.987-3.023-2.972c-11.559,0.076-23.12,0.097-34.679-0.013
			c-2.573-0.024-3.105,1.043-3.079,3.327c0.093,8.237,0.112,16.477-0.009,24.713C171.773,45.827,172.639,46.597,175.041,46.541z"/>
		<path class="st2" d="M124.735,43.641c-0.014,1.96,0.53,2.9,2.694,2.887c11.568-0.069,23.137-0.043,34.706-0.022
			c1.552,0.003,2.532-0.392,2.539-2.202c0.033-8.747,1.244-17.453,0.839-26.223c-0.097-2.105-0.855-2.763-2.862-2.736
			c-5.85,0.079-11.701,0.028-17.552,0.027c-5.718-0.001-11.438,0.089-17.153-0.044c-2.405-0.056-3.269,0.717-3.233,3.182
			C124.833,26.885,124.795,35.264,124.735,43.641z"/>
	</g>
	<g>
		<path d="M20.467,259.252H0.659v-86.659h15.475c11.018,0,17.084,6.809,17.084,17.332l-0.124,24.759c0,5.2-1.857,10.276-7.18,13.618
			c5.818,1.857,7.428,6.685,7.428,11.389v6.066C33.341,255.415,26.656,259.252,20.467,259.252z M7.22,226.569h9.161
			c4.457,0,10.523-4.58,10.523-12.008v-24.636c0-6.561-2.6-11.266-10.771-11.389H7.22V226.569z M18.733,232.264H7.22v21.17h13.247
			c5.694,0,6.438-5.324,6.438-7.676v-6.066C26.904,234.74,23.438,232.388,18.733,232.264z"/>
		<path d="M43.364,172.593h6.562v86.659h-6.562V172.593z"/>
		<path d="M95.359,242.044c0,10.276-6.066,17.951-16.466,17.951c-10.151,0-17.084-6.561-17.084-18.074v-51.377
			c0-10.027,6.314-18.322,16.837-18.322c10.522,0,16.836,7.552,16.836,18.198v7.923h-6.19v-7.923c0-6.809-3.095-12.38-10.523-12.38
			c-6.314,0-10.398,5.2-10.398,12.503v51.377c0,7.304,3.59,12.132,10.522,12.132c6.19,0,10.152-3.714,10.152-12.009v-6.437H76.417
			v-5.695h18.942V242.044z"/>
		<path d="M130.266,259.252h-25.502v-86.659h6.561v80.84h18.941V259.252z"/>
		<path d="M142.28,172.593h6.562v86.659h-6.562V172.593z"/>
		<path d="M171.007,230.407h18.694v5.694h-18.694v17.332h23.521v5.818h-30.083v-86.659h30.083v5.694h-23.521V230.407z"/>
		<path d="M223.015,178.288v80.964h-6.314v-80.964h-12.133v-5.694h30.454v5.694H223.015z"/>
		<path d="M238.975,242.168v-52.367c0-9.284,5.819-17.95,17.208-17.95c10.399,0,16.465,8.418,16.465,18.074v52.119
			c0,9.161-5.447,18.075-16.465,18.075C245.413,260.119,238.975,251.948,238.975,242.168z M245.537,189.801v52.367
			c0,6.314,3.342,12.009,10.647,12.009c6.809,0,10.151-5.571,10.151-12.133v-52.119c0-6.066-3.095-12.256-10.151-12.256
			C248.879,177.669,245.537,183.116,245.537,189.801z"/>
	</g>
</g>
</svg>